<mxfile host="65bd71144e">
    <diagram id="TbN-1KGew4VI_0XE6wF6" name="Page-1">
        <mxGraphModel dx="1374" dy="-2948" grid="1" gridSize="10" guides="1" tooltips="1" connect="1" arrows="1" fold="1" page="1" pageScale="1" pageWidth="850" pageHeight="1100" math="0" shadow="0">
            <root>
                <mxCell id="0"/>
                <mxCell id="1" parent="0"/>
                <mxCell id="2" value="&lt;h1&gt;Structure Details&lt;/h1&gt;&lt;div&gt;Here's a verry simplified view of the layers of the app.&lt;/div&gt;" style="text;html=1;strokeColor=none;fillColor=none;spacing=5;spacingTop=-20;whiteSpace=wrap;overflow=hidden;rounded=0;" vertex="1" parent="1">
                    <mxGeometry x="1708" y="3320" width="813" height="79" as="geometry"/>
                </mxCell>
                <mxCell id="3" value="&lt;h1&gt;Meta Model&lt;/h1&gt;&lt;p&gt;The app, indeed, the whole moontree company, is meant to translate what is into what can be. So the app can be thought of as a way to allow the user to interact with the chain. It sits between the user and the chain data.&lt;/p&gt;" style="text;html=1;strokeColor=none;fillColor=none;spacing=5;spacingTop=-20;whiteSpace=wrap;overflow=hidden;rounded=0;" vertex="1" parent="1">
                    <mxGeometry x="10" y="3320" width="813" height="94" as="geometry"/>
                </mxCell>
                <mxCell id="4" style="edgeStyle=none;html=1;entryX=0.75;entryY=1;entryDx=0;entryDy=0;exitX=0.75;exitY=0;exitDx=0;exitDy=0;" edge="1" parent="1" source="5" target="8">
                    <mxGeometry relative="1" as="geometry"/>
                </mxCell>
                <mxCell id="5" value="Chain" style="shape=trapezoid;perimeter=trapezoidPerimeter;whiteSpace=wrap;html=1;fixedSize=1;" vertex="1" parent="1">
                    <mxGeometry x="157" y="3684" width="533" height="60" as="geometry"/>
                </mxCell>
                <mxCell id="6" style="edgeStyle=none;html=1;entryX=0.25;entryY=0;entryDx=0;entryDy=0;exitX=0.25;exitY=1;exitDx=0;exitDy=0;" edge="1" parent="1" source="8" target="5">
                    <mxGeometry relative="1" as="geometry"/>
                </mxCell>
                <mxCell id="7" value="desire" style="edgeStyle=none;html=1;endArrow=classic;endFill=1;exitX=0.75;exitY=0;exitDx=0;exitDy=0;" edge="1" parent="1" source="8" target="10">
                    <mxGeometry relative="1" as="geometry"/>
                </mxCell>
                <mxCell id="8" value="Moontree" style="rounded=0;whiteSpace=wrap;html=1;" vertex="1" parent="1">
                    <mxGeometry x="199" y="3601" width="464" height="60" as="geometry"/>
                </mxCell>
                <mxCell id="9" value="intent" style="edgeStyle=none;html=1;entryX=0.25;entryY=0;entryDx=0;entryDy=0;endArrow=classic;endFill=1;" edge="1" parent="1" source="10" target="8">
                    <mxGeometry relative="1" as="geometry"/>
                </mxCell>
                <mxCell id="10" value="User" style="shape=umlActor;verticalLabelPosition=bottom;verticalAlign=top;html=1;outlineConnect=0;" vertex="1" parent="1">
                    <mxGeometry x="408.5" y="3466" width="30" height="60" as="geometry"/>
                </mxCell>
                <mxCell id="11" value="translation" style="endArrow=classic;html=1;exitX=0.25;exitY=0;exitDx=0;exitDy=0;entryX=0.25;entryY=1;entryDx=0;entryDy=0;endFill=1;" edge="1" parent="1" source="8" target="8">
                    <mxGeometry width="50" height="50" relative="1" as="geometry">
                        <mxPoint x="640" y="3562" as="sourcePoint"/>
                        <mxPoint x="690" y="3512" as="targetPoint"/>
                    </mxGeometry>
                </mxCell>
                <mxCell id="12" value="translation" style="edgeStyle=none;html=1;exitX=0.75;exitY=1;exitDx=0;exitDy=0;entryX=0.75;entryY=0;entryDx=0;entryDy=0;" edge="1" parent="1" source="8" target="8">
                    <mxGeometry relative="1" as="geometry"/>
                </mxCell>
                <mxCell id="13" value="&lt;h1&gt;Shape of the App&lt;/h1&gt;&lt;p&gt;Every layer of the app must support the users.&lt;/p&gt;" style="text;html=1;strokeColor=none;fillColor=none;spacing=5;spacingTop=-20;whiteSpace=wrap;overflow=hidden;rounded=0;" vertex="1" parent="1">
                    <mxGeometry x="859" y="3320" width="813" height="120" as="geometry"/>
                </mxCell>
                <mxCell id="14" value="" style="verticalLabelPosition=bottom;verticalAlign=top;html=1;shape=mxgraph.basic.acute_triangle;dx=0.5;" vertex="1" parent="1">
                    <mxGeometry x="1223" y="3504" width="100" height="70" as="geometry"/>
                </mxCell>
                <mxCell id="15" value="Domain Model" style="shape=trapezoid;perimeter=trapezoidPerimeter;whiteSpace=wrap;html=1;fixedSize=1;size=50.018402099609375;" vertex="1" parent="1">
                    <mxGeometry x="1156.5" y="3601" width="233" height="60" as="geometry"/>
                </mxCell>
                <mxCell id="16" value="Infrastructure" style="shape=trapezoid;perimeter=trapezoidPerimeter;whiteSpace=wrap;html=1;fixedSize=1;size=55.573944091796875;" vertex="1" parent="1">
                    <mxGeometry x="1084" y="3684" width="378" height="60" as="geometry"/>
                </mxCell>
                <mxCell id="17" value="User&lt;br&gt;Interface" style="text;html=1;strokeColor=none;fillColor=none;align=center;verticalAlign=middle;whiteSpace=wrap;rounded=0;" vertex="1" parent="1">
                    <mxGeometry x="1243" y="3544" width="60" height="30" as="geometry"/>
                </mxCell>
                <mxCell id="18" style="edgeStyle=orthogonalEdgeStyle;curved=1;html=1;entryX=1;entryY=0.5;entryDx=0;entryDy=0;endArrow=classic;endFill=1;exitX=1;exitY=0.5;exitDx=0;exitDy=0;" edge="1" parent="1" source="20" target="29">
                    <mxGeometry relative="1" as="geometry">
                        <Array as="points">
                            <mxPoint x="2388" y="3638"/>
                        </Array>
                    </mxGeometry>
                </mxCell>
                <mxCell id="19" style="edgeStyle=orthogonalEdgeStyle;curved=1;html=1;entryX=1;entryY=0.5;entryDx=0;entryDy=0;endArrow=classic;endFill=1;exitX=1;exitY=0.25;exitDx=0;exitDy=0;" edge="1" parent="1" source="20" target="32">
                    <mxGeometry relative="1" as="geometry">
                        <Array as="points">
                            <mxPoint x="2376" y="3713"/>
                        </Array>
                    </mxGeometry>
                </mxCell>
                <mxCell id="20" value="API" style="shape=trapezoid;perimeter=trapezoidPerimeter;whiteSpace=wrap;html=1;fixedSize=1;size=55.573944091796875;" vertex="1" parent="1">
                    <mxGeometry x="1865" y="3772" width="551" height="60" as="geometry"/>
                </mxCell>
                <mxCell id="21" value="Database" style="shape=trapezoid;perimeter=trapezoidPerimeter;whiteSpace=wrap;html=1;fixedSize=1;size=55.573944091796875;" vertex="1" parent="1">
                    <mxGeometry x="1799" y="3849" width="679" height="60" as="geometry"/>
                </mxCell>
                <mxCell id="22" style="edgeStyle=orthogonalEdgeStyle;html=1;entryX=1;entryY=0.75;entryDx=0;entryDy=0;endArrow=classic;endFill=1;exitX=1;exitY=0.5;exitDx=0;exitDy=0;curved=1;" edge="1" parent="1" source="23" target="21">
                    <mxGeometry relative="1" as="geometry">
                        <Array as="points">
                            <mxPoint x="2512" y="3893"/>
                        </Array>
                    </mxGeometry>
                </mxCell>
                <mxCell id="23" value="RavenD" style="shape=trapezoid;perimeter=trapezoidPerimeter;whiteSpace=wrap;html=1;fixedSize=1;size=55.573944091796875;" vertex="1" parent="1">
                    <mxGeometry x="1731" y="3926" width="809" height="60" as="geometry"/>
                </mxCell>
                <mxCell id="24" value="Server" style="swimlane;horizontal=0;" vertex="1" parent="1">
                    <mxGeometry x="1702" y="3763" width="1413" height="236" as="geometry"/>
                </mxCell>
                <mxCell id="25" value="Build a database that matches or supports our domain model in the most direct way." style="text;html=1;strokeColor=none;fillColor=none;align=left;verticalAlign=middle;whiteSpace=wrap;rounded=0;" vertex="1" parent="24">
                    <mxGeometry x="846" y="134" width="463" height="30" as="geometry"/>
                </mxCell>
                <mxCell id="26" value="The database should map to the API very efficiently. Taken together they are an expersion of the domain model." style="text;html=1;strokeColor=none;fillColor=none;align=left;verticalAlign=middle;whiteSpace=wrap;rounded=0;" vertex="1" parent="24">
                    <mxGeometry x="771" y="56" width="615" height="30" as="geometry"/>
                </mxCell>
                <mxCell id="27" value="App" style="swimlane;horizontal=0;" vertex="1" parent="1">
                    <mxGeometry x="1702" y="3519" width="1413" height="238" as="geometry"/>
                </mxCell>
                <mxCell id="28" style="edgeStyle=orthogonalEdgeStyle;curved=1;html=1;endArrow=classic;endFill=1;exitX=1;exitY=0.25;exitDx=0;exitDy=0;entryX=1;entryY=0.75;entryDx=0;entryDy=0;" edge="1" parent="27" source="29" target="30">
                    <mxGeometry relative="1" as="geometry">
                        <Array as="points">
                            <mxPoint x="549" y="55"/>
                        </Array>
                    </mxGeometry>
                </mxCell>
                <mxCell id="29" value="Application" style="shape=trapezoid;perimeter=trapezoidPerimeter;whiteSpace=wrap;html=1;fixedSize=1;size=50.018402099609375;" vertex="1" parent="27">
                    <mxGeometry x="305" y="89" width="278" height="60" as="geometry"/>
                </mxCell>
                <mxCell id="30" value="User Interface" style="shape=trapezoid;perimeter=trapezoidPerimeter;whiteSpace=wrap;html=1;fixedSize=1;size=50.018402099609375;" vertex="1" parent="27">
                    <mxGeometry x="367.75" y="13" width="152.5" height="60" as="geometry"/>
                </mxCell>
                <mxCell id="31" style="edgeStyle=orthogonalEdgeStyle;curved=1;html=1;entryX=1;entryY=0.75;entryDx=0;entryDy=0;endArrow=classic;endFill=1;exitX=1;exitY=0.25;exitDx=0;exitDy=0;" edge="1" parent="27" source="32" target="29">
                    <mxGeometry relative="1" as="geometry">
                        <Array as="points">
                            <mxPoint x="610" y="133"/>
                        </Array>
                    </mxGeometry>
                </mxCell>
                <mxCell id="32" value="Cache" style="shape=trapezoid;perimeter=trapezoidPerimeter;whiteSpace=wrap;html=1;fixedSize=1;size=50.018402099609375;" vertex="1" parent="27">
                    <mxGeometry x="243" y="164" width="402" height="60" as="geometry"/>
                </mxCell>
                <mxCell id="33" value="To the extent that we need a cache on the front end we'll have one, but mostly the app is light weight." style="text;html=1;strokeColor=none;fillColor=none;align=left;verticalAlign=middle;whiteSpace=wrap;rounded=0;" vertex="1" parent="27">
                    <mxGeometry x="705" y="194" width="549" height="30" as="geometry"/>
                </mxCell>
                <mxCell id="34" value="Objects should be received as domain level entities or easily translated into them." style="text;html=1;strokeColor=none;fillColor=none;align=left;verticalAlign=middle;whiteSpace=wrap;rounded=0;" vertex="1" parent="27">
                    <mxGeometry x="677" y="134" width="549" height="30" as="geometry"/>
                </mxCell>
                <mxCell id="35" value="Flutter best practices should be used to make efficient use of the framework to support user experience." style="text;html=1;strokeColor=none;fillColor=none;align=left;verticalAlign=middle;whiteSpace=wrap;rounded=0;" vertex="1" parent="27">
                    <mxGeometry x="583" y="59" width="658" height="30" as="geometry"/>
                </mxCell>
                <mxCell id="36" value="" style="shape=umlActor;verticalLabelPosition=bottom;verticalAlign=top;html=1;outlineConnect=0;" vertex="1" parent="1">
                    <mxGeometry x="2132" y="3448" width="30" height="60" as="geometry"/>
                </mxCell>
                <mxCell id="37" style="edgeStyle=orthogonalEdgeStyle;html=1;entryX=1;entryY=0.75;entryDx=0;entryDy=0;endArrow=classic;endFill=1;exitX=1;exitY=0.25;exitDx=0;exitDy=0;curved=1;" edge="1" parent="1" source="21" target="20">
                    <mxGeometry relative="1" as="geometry">
                        <mxPoint x="2522.2130279541016" y="3966" as="sourcePoint"/>
                        <mxPoint x="2460.2130279541016" y="3889" as="targetPoint"/>
                        <Array as="points">
                            <mxPoint x="2438" y="3816"/>
                        </Array>
                    </mxGeometry>
                </mxCell>
                <mxCell id="38" value="Ravencoin P2P Miner Network" style="rounded=0;whiteSpace=wrap;html=1;" vertex="1" parent="1">
                    <mxGeometry x="1702" y="4006" width="871" height="60" as="geometry"/>
                </mxCell>
            </root>
        </mxGraphModel>
    </diagram>
</mxfile>